<svg width="70" height="65" viewBox="0 0 89 65" fill="none" xmlns="http://www.w3.org/2000/svg">
<g filter="url(#filter0_d)">
<path fill-rule="evenodd" clip-rule="evenodd" d="M40 32.5C40 33.8807 41.1193 35 42.5 35H82.5C83.8807 35 85 33.8807 85 32.5V32.5C85 31.1193 83.8807 30 82.5 30H42.5C41.1193 30 40 31.1193 40 32.5V32.5ZM13.3333 16.25C11.8376 16.25 10.625 17.4626 10.625 18.9583V18.9583C10.625 20.4541 11.8376 21.6667 13.3333 21.6667H71.6667C73.1624 21.6667 74.375 20.4541 74.375 18.9583V18.9583C74.375 17.4626 73.1624 16.25 71.6667 16.25H13.3333Z"  fill="black" fill-opacity="0.75"/>
</g>
<defs>
<filter id="filter0_d" x="6.625" y="16.25" width="82.375" height="26.75" filterUnits="userSpaceOnUse" color-interpolation-filters="sRGB">
<feFlood flood-opacity="0" result="BackgroundImageFix"/>
<feColorMatrix in="SourceAlpha" type="matrix" values="0 0 0 0 0 0 0 0 0 0 0 0 0 0 0 0 0 0 127 0"/>
<feOffset dy="4"/>
<feGaussianBlur stdDeviation="2"/>
<feColorMatrix type="matrix" values="0 0 0 0 0 0 0 0 0 0 0 0 0 0 0 0 0 0 0.25 0"/>
<feBlend mode="normal" in2="BackgroundImageFix" result="effect1_dropShadow"/>
<feBlend mode="normal" in="SourceGraphic" in2="effect1_dropShadow" result="shape"/>
</filter>
</defs>
</svg>
